<svg id="Layer_5" enable-background="new 0 0 64 64" height="512" viewBox="0 0 64 64" width="512" xmlns="http://www.w3.org/2000/svg" xmlns:xlink="http://www.w3.org/1999/xlink"><linearGradient id="SVGID_1_" gradientUnits="userSpaceOnUse" x1="32" x2="32" y1="63" y2="1"><stop offset="0" stop-color="#9f2fff"/><stop offset="1" stop-color="#0bb1d3"/></linearGradient><path d="m21 39h2v2h-2zm4 2h14v-2h-14zm16 0h2v-2h-2zm6 18h2v-2h-2zm-32 0h2v-2h-2zm8-6h2v-2h-2zm-8 0h2v-2h-2zm4 0h2v-2h-2zm28 0h2v-2h-2zm-4 0h2v-2h-2zm-4 0h2v-2h-2zm24-23v10c0 2.757-2.243 5-5 5h-5v13c0 2.757-2.243 5-5 5h-32c-2.757 0-5-2.243-5-5v-13h-5c-2.757 0-5-2.243-5-5v-10c0-2.414 1.721-4.434 4-4.899v-19.101c0-1.654 1.346-3 3-3h3.184c.414-1.161 1.514-2 2.816-2h36c1.302 0 2.402.839 2.816 2h3.184c1.654 0 3 1.346 3 3v19.101c2.279.465 4 2.485 4 4.899zm-7-25h-3v20h4v-19c0-.552-.448-1-1-1zm-43-1v21h38v-21c0-.552-.448-1-1-1h-36c-.552 0-1 .448-1 1zm-6 2v19h4v-20h-3c-.552 0-1 .448-1 1zm12 37h26v-6h-26zm-2 2v-8h-1c-1.654 0-3 1.346-3 3v7h38v-7c0-1.654-1.346-3-3-3h-1v8zm26 12h-22v4h22zm8 1v-9h-38v9c0 1.654 1.346 3 3 3h3v-6h26v6h3c1.654 0 3-1.346 3-3zm10-28c0-1.654-1.346-3-3-3h-52c-1.654 0-3 1.346-3 3v10c0 1.654 1.346 3 3 3h5v-3c0-2.757 2.243-5 5-5h32c2.757 0 5 2.243 5 5v3h5c1.654 0 3-1.346 3-3zm-2 2c0 1.654-1.346 3-3 3s-3-1.346-3-3 1.346-3 3-3 3 1.346 3 3zm-2 0c0-.552-.448-1-1-1s-1 .448-1 1 .448 1 1 1 1-.448 1-1zm-2 9h4v-2h-4zm-50 0h4v-2h-4zm0-12h8v6h-8zm2 4h4v-2h-4zm10-26h2v-2h-4v12h2zm0 12h-2v2h2z" fill="url(#SVGID_1_)"/></svg>